# xmcd
#
# Track frame offsets: 
#        182
#        14337
#        26142
#        36897
#        50310
#        62772
#        74502
#        86387
#        107382
#        119190
#        130900
#        140862
#        157110
#        170932
#        183305
#        195482
#        208832
#        217880
#        234582
#        250405
#        261970
#        270447
#
# Disc length: 3759 seconds
#
# Revision: 5
# Processed by: cddbd v1.5.2PL0 Copyright (c) Steve Scherf et al.
# Submitted via: ExactAudioCopy v0.95b4
#
DISCID=510ead16
DTITLE=Various Artist - The Originals: Popsongs (From The 60's)
DYEAR=1988
DGENRE=Pop
TTITLE0=David McWilliams - Can I Get There By Candelelight
TTITLE1=Peter and Gordon - True Love Ways
TTITLE2=Gerry and The Pacemakers - Ferry Cross The Mersey
TTITLE3=Cilla Black - You're My World
TTITLE4=Jay and The Americans - Come A Little Bit Closer
TTITLE5=The Animals - Bring It On Home To Me
TTITLE6=Peter and Gordon - World Without Love
TTITLE7=Peter Sarsted - Where Do You Go To My Lovely
TTITLE8=Cliff Richard - Constantly
TTITLE9=Freddie and The Dreamers - I Understand
TTITLE10=The Beach Boys - In My Room
TTITLE11=P.J. Proby - Maria
TTITLE12=The Monkees - Daydream Believer
TTITLE13=Harry Nilsson - Everybody's Talking
TTITLE14=Nina Simone - To Love Somebody
TTITLE15=The Hollies - Sorry Suzanne
TTITLE16=Billy J. Kramer and The Dakotas - Do You Want To Know A Secret
TTITLE17=The Fortunes - Seasons In The Sun
TTITLE18=The Band - The Night They Drove Old Dixie Down
TTITLE19=Rudy Bennett - How Can We Hang On To A Dream
TTITLE20=Box Tops - The Letter
TTITLE21=Jefferson Airplane - White Rabbit
EXTD=YEAR: 1988
EXTT0=
EXTT1=
EXTT2=
EXTT3=
EXTT4=
EXTT5=
EXTT6=
EXTT7=
EXTT8=
EXTT9=
EXTT10=
EXTT11=
EXTT12=
EXTT13=
EXTT14=
EXTT15=
EXTT16=
EXTT17=
EXTT18=
EXTT19=
EXTT20=
EXTT21=
PLAYORDER=
